<svg width="387" height="328" viewBox="0 0 387 328" fill="none" xmlns="http://www.w3.org/2000/svg">
<path d="M213.5 1.4948C215.126 1.74649 215.126 1.74649 216.784 2.00326C220.688 2.63028 224.584 3.29297 228.481 3.96331C229.968 4.21663 231.456 4.46968 232.943 4.72248C236.954 5.40502 240.963 6.09208 244.972 6.78049C247.478 7.21054 249.984 7.63968 252.489 8.06853C261.231 9.56484 269.973 11.0651 278.714 12.5688C286.865 13.9709 295.018 15.3637 303.172 16.7523C310.178 17.9461 317.184 19.1466 324.189 20.3524C328.37 21.0721 332.552 21.7889 336.735 22.4988C340.659 23.1649 344.582 23.8394 348.503 24.5204C349.946 24.7694 351.388 25.0154 352.832 25.2581C354.794 25.5886 356.754 25.9309 358.715 26.274C359.814 26.4626 360.914 26.6511 362.047 26.8454C362.856 27.0597 363.666 27.274 364.5 27.4948C364.83 28.1548 365.16 28.8148 365.5 29.4948C364.574 31.1589 364.574 31.1589 363.188 33.1198C358.503 40.368 357.569 47.9502 358.5 56.4948C361.014 66.9797 366.138 74.302 374.961 80.3659C375.469 80.7384 375.977 81.111 376.5 81.4948C376.5 81.8248 376.5 82.1548 376.5 82.4948C375.218 82.6713 373.937 82.8478 372.616 83.0297C367.86 83.6854 363.104 84.3439 358.348 85.0033C356.29 85.2883 354.232 85.5725 352.173 85.8559C349.214 86.2634 346.256 86.6738 343.297 87.0846C342.377 87.2107 341.457 87.3368 340.509 87.4667C339.649 87.5868 338.788 87.7068 337.901 87.8305C337.146 87.9349 336.391 88.0392 335.613 88.1468C333.538 88.4886 331.533 88.9546 329.5 89.4948C326.753 100.092 326.521 109.099 331.824 118.956C334.843 123.726 338.012 127.104 342.5 130.495C343.513 131.482 344.516 132.479 345.5 133.495C334.856 135.477 334.856 135.477 330.375 136.057C327.61 136.188 327.61 136.188 326.5 137.495C340.36 139.97 340.36 139.97 354.5 142.495C354.5 145.905 353.778 147.051 352.063 149.932C347.778 157.146 347.747 164.204 348.5 172.495C350.871 181.491 355.509 189.309 363.438 194.37C364.118 194.741 364.799 195.112 365.5 195.495C365.5 196.155 365.5 196.815 365.5 197.495C364.698 197.595 363.896 197.695 363.069 197.799C359.439 198.262 355.814 198.753 352.188 199.245C350.925 199.402 349.662 199.559 348.361 199.721C347.153 199.889 345.944 200.057 344.699 200.229C343.584 200.376 342.468 200.522 341.319 200.674C338.003 201.64 337.175 202.536 335.5 205.495C332.047 213.699 332.019 224.705 335.188 233.057C335.911 234.56 336.68 236.042 337.5 237.495C338.061 238.512 338.061 238.512 338.633 239.549C341.441 244.031 344.439 245.916 349.5 247.495C354.12 248.545 358.77 249.372 363.438 250.182C364.694 250.407 365.95 250.632 367.244 250.864C370.328 251.415 373.413 251.958 376.5 252.495C374.932 255.662 373.225 258.688 371.402 261.714C367.976 268.478 368.496 278.197 370.184 285.421C373.487 294.233 378.627 300.456 386.5 305.495C383.2 307.695 381.387 307.979 377.501 308.501C376.246 308.674 374.992 308.846 373.7 309.024C372.307 309.207 370.913 309.391 369.52 309.574C368.055 309.772 366.589 309.971 365.124 310.171C361.139 310.711 357.152 311.241 353.166 311.769C349.831 312.211 346.497 312.658 343.163 313.104C335.286 314.159 327.408 315.205 319.529 316.246C311.426 317.316 303.326 318.403 295.227 319.497C288.259 320.438 281.29 321.368 274.319 322.29C270.163 322.839 266.007 323.393 261.853 323.958C257.935 324.49 254.016 325.008 250.095 325.516C248.667 325.704 247.239 325.896 245.812 326.093C231.223 328.106 217.636 326.516 203.132 324.517C201.65 324.316 200.169 324.116 198.687 323.915C194.707 323.376 190.728 322.831 186.75 322.285C184.256 321.942 181.762 321.601 179.268 321.26C170.547 320.067 161.827 318.869 153.107 317.667C145.01 316.551 136.912 315.447 128.813 314.349C121.827 313.402 114.842 312.444 107.859 311.48C103.701 310.906 99.5439 310.336 95.3849 309.776C91.4754 309.249 87.5678 308.711 83.6611 308.163C82.236 307.966 80.8103 307.772 79.3839 307.583C65.9821 305.803 54.4352 303.32 45.5 292.495C41.0567 284.722 40.0716 276.216 42.2305 267.569C44.1391 261.812 46.5214 258.014 50.5 253.495C49.8661 253.405 49.2322 253.315 48.5791 253.223C18.5514 248.844 18.5514 248.844 9.83597 237.62C5.52456 230.762 4.52127 223.479 5.50003 215.495C7.35785 207.707 10.4803 200.774 17.3477 196.288C22.1522 193.737 27.3109 192.08 32.5 190.495C31.4172 189.752 31.4172 189.752 30.3125 188.995C23.4089 182.858 20.913 175.615 20.1875 166.62C20.4694 158.163 23.4875 150.494 29.5 144.495C33.9632 141.056 38.0002 139.516 43.375 138.245C44.0634 138.072 44.7517 137.899 45.461 137.721C47.1381 137.302 48.8187 136.897 50.5 136.495C49.6844 136.375 48.8687 136.255 48.0283 136.131C44.9392 135.666 41.8535 135.183 38.7691 134.688C36.8026 134.378 34.833 134.089 32.8633 133.799C22.4166 132.103 11.2014 129.294 4.61331 120.315C-0.220069 112.412 -0.37306 104.608 0.500028 95.4948C1.36087 92.1049 2.60662 89.4242 4.50003 86.4948C5.08397 85.5435 5.08397 85.5435 5.67972 84.5729C12.4999 75.1296 25.7843 73.4445 36.5 71.4948C35.7163 70.4635 34.9325 69.4323 34.125 68.3698C28.8457 61.4233 28.8848 53.8763 29.5 45.4948C30.6906 37.8681 34.6825 32.4285 40.5 27.4948C52.3522 20.6106 67.4584 20.0654 80.7266 18.2096C83.4015 17.8259 86.0757 17.4374 88.7499 17.0491C95.0621 16.1352 101.376 15.2367 107.692 14.344C114.778 13.3416 121.861 12.323 128.944 11.3024C137.636 10.0503 146.327 8.80029 155.021 7.56412C156.241 7.39047 157.461 7.21681 158.718 7.0379C161.116 6.69726 163.514 6.35801 165.912 6.02025C171.937 5.16707 177.953 4.27318 183.962 3.31197C185.176 3.12119 186.39 2.93042 187.641 2.73386C189.929 2.37234 192.217 2.00104 194.502 1.61773C201.122 0.580633 206.891 0.440864 213.5 1.4948Z" fill="#8CB35C"/>
<path d="M40.8968 192.893C46.9674 194.749 53.0584 195.608 59.3399 196.436C60.5576 196.603 61.7754 196.77 63.03 196.943C65.5828 197.292 68.136 197.639 70.6897 197.982C74.3427 198.474 77.9941 198.976 81.6451 199.483C87.5622 200.304 93.4802 201.118 99.3986 201.93C116.006 204.208 132.613 206.488 149.204 208.887C153.22 209.466 157.237 210.037 161.254 210.607C164.972 211.134 168.69 211.666 172.407 212.203C176.704 212.823 181.004 213.426 185.305 214.02C186.942 214.248 188.578 214.482 190.214 214.72C192.491 215.052 194.77 215.365 197.051 215.674C198.995 215.949 198.995 215.949 200.978 216.229C211.962 217.218 223.298 215.113 234.16 213.639C235.543 213.455 236.926 213.271 238.31 213.087C241.225 212.698 244.14 212.308 247.055 211.914C251.607 211.301 256.159 210.693 260.711 210.087C273.292 208.409 285.871 206.717 298.449 205.014C302.636 204.448 306.823 203.884 311.01 203.32C313.814 202.941 316.618 202.556 319.422 202.172C321.102 201.945 322.781 201.718 324.461 201.491C325.198 201.388 325.936 201.286 326.696 201.18C330.66 200.65 334.501 200.395 338.5 200.495C338.223 201.037 337.946 201.58 337.66 202.139C337.298 202.855 336.936 203.57 336.563 204.307C336.203 205.015 335.843 205.723 335.473 206.452C332.138 213.455 332.442 223.034 334.219 230.526C335.158 232.979 336.209 235.209 337.5 237.495C338.061 238.512 338.061 238.512 338.633 239.549C341.441 244.031 344.439 245.916 349.5 247.495C354.12 248.545 358.77 249.372 363.438 250.182C364.694 250.407 365.95 250.632 367.244 250.864C370.328 251.415 373.413 251.958 376.5 252.495C374.932 255.662 373.225 258.688 371.402 261.714C367.976 268.478 368.496 278.197 370.184 285.421C373.487 294.233 378.627 300.456 386.5 305.495C383.2 307.695 381.387 307.979 377.501 308.501C375.619 308.76 375.619 308.76 373.7 309.024C372.307 309.207 370.913 309.391 369.52 309.574C368.055 309.772 366.589 309.971 365.124 310.171C361.139 310.711 357.152 311.241 353.166 311.769C349.831 312.211 346.497 312.658 343.163 313.104C335.286 314.159 327.408 315.205 319.529 316.246C311.426 317.316 303.326 318.403 295.227 319.497C288.259 320.438 281.29 321.368 274.319 322.29C270.163 322.839 266.007 323.393 261.853 323.958C257.935 324.49 254.016 325.008 250.095 325.516C248.667 325.704 247.239 325.896 245.812 326.093C231.223 328.106 217.636 326.516 203.132 324.517C201.65 324.316 200.169 324.116 198.687 323.915C194.707 323.376 190.728 322.831 186.75 322.285C184.256 321.942 181.762 321.601 179.268 321.26C170.547 320.067 161.827 318.869 153.107 317.667C145.01 316.551 136.912 315.447 128.813 314.349C121.827 313.402 114.842 312.444 107.859 311.48C103.701 310.906 99.5439 310.336 95.3849 309.776C91.4754 309.249 87.5678 308.711 83.6611 308.163C82.236 307.966 80.8103 307.772 79.3839 307.583C65.9821 305.803 54.4352 303.32 45.5 292.495C41.0567 284.722 40.0716 276.216 42.2305 267.569C44.1391 261.812 46.5214 258.014 50.5 253.495C49.8661 253.405 49.2322 253.315 48.5791 253.223C18.5514 248.844 18.5514 248.844 9.83597 237.62C5.52456 230.762 4.52127 223.479 5.50003 215.495C7.366 207.672 10.5034 200.731 17.418 196.253C25.1142 192.174 32.4741 190.098 40.8968 192.893Z" fill="#FEC84F"/>
<path d="M213.5 1.4948C215.126 1.74649 215.126 1.74649 216.784 2.00326C220.688 2.63028 224.584 3.29297 228.481 3.96331C229.968 4.21663 231.456 4.46968 232.943 4.72248C236.954 5.40502 240.963 6.09208 244.972 6.78049C247.478 7.21054 249.984 7.63968 252.489 8.06853C261.231 9.56484 269.973 11.0651 278.714 12.5688C286.865 13.9709 295.018 15.3637 303.172 16.7523C310.178 17.9461 317.184 19.1466 324.189 20.3524C328.37 21.0721 332.552 21.7889 336.735 22.4988C340.659 23.1649 344.582 23.8394 348.503 24.5204C349.946 24.7694 351.388 25.0154 352.832 25.2581C354.794 25.5886 356.754 25.9309 358.715 26.274C359.814 26.4626 360.914 26.6511 362.047 26.8454C362.856 27.0597 363.666 27.274 364.5 27.4948C364.83 28.1548 365.16 28.8148 365.5 29.4948C364.574 31.1589 364.574 31.1589 363.188 33.1198C358.503 40.368 357.569 47.9502 358.5 56.4948C361.014 66.9797 366.138 74.302 374.961 80.3659C375.469 80.7384 375.977 81.111 376.5 81.4948C376.5 81.8248 376.5 82.1548 376.5 82.4948C334.091 88.5592 334.091 88.5592 315.415 90.5192C308 91.3031 300.627 92.2606 293.258 93.4057C287.808 94.2336 282.351 94.8312 276.867 95.3854C269.498 96.1345 262.16 97.0408 254.82 98.0378C253.325 98.2386 253.325 98.2386 251.8 98.4434C247.705 98.9937 243.61 99.5446 239.518 100.117C217.712 103.152 217.712 103.152 206.5 101.495C204.884 101.281 203.268 101.069 201.652 100.858C196.785 100.212 191.925 99.5254 187.066 98.8277C182.668 98.1966 178.269 97.5754 173.87 96.9534C171.566 96.6277 169.263 96.3014 166.96 95.9748C154.623 94.2253 142.281 92.5077 129.938 90.8073C128.333 90.5858 128.333 90.5858 126.695 90.3598C114.239 88.6434 101.778 87.0056 89.2889 85.5459C79.3335 84.3807 69.3964 83.155 59.5 81.5573C58.6038 81.4236 57.7076 81.29 56.7842 81.1523C48.1852 79.6769 40.6701 75.6649 34.5 69.4948C29.3191 61.0426 28.3837 52.7511 29.8907 42.9557C31.8624 35.8019 36.4089 29.8711 42.8383 26.1367C54.8901 21.1406 67.9019 20.0034 80.7266 18.2096C83.4015 17.8259 86.0757 17.4374 88.7499 17.0491C95.0621 16.1352 101.376 15.2367 107.692 14.344C114.778 13.3416 121.861 12.323 128.944 11.3024C137.636 10.0503 146.327 8.80029 155.021 7.56412C156.241 7.39047 157.461 7.21681 158.718 7.0379C161.116 6.69726 163.514 6.35801 165.912 6.02025C171.937 5.16707 177.953 4.27318 183.962 3.31197C185.176 3.12119 186.39 2.93042 187.641 2.73386C189.929 2.37234 192.217 2.00104 194.502 1.61773C201.122 0.580633 206.891 0.440864 213.5 1.4948Z" fill="#4698AF"/>
<path d="M97.5 86.4948C109.269 87.0072 120.797 88.1923 132.449 89.8932C134.121 90.1319 135.793 90.3699 137.465 90.6073C141.825 91.228 146.184 91.8569 150.543 92.4878C154.918 93.1197 159.294 93.7446 163.67 94.3698C165.387 94.6154 167.103 94.861 168.82 95.1067C172.174 95.5863 175.528 96.0645 178.882 96.5416C180.488 96.7704 182.095 96.9992 183.701 97.2282C184.469 97.3378 185.238 97.4473 186.03 97.5602C190.48 98.1971 194.924 98.8618 199.366 99.5505C209.345 101.073 218.421 101.893 228.5 100.495C230.076 100.291 231.651 100.089 233.227 99.8864C237.725 99.2962 242.216 98.6664 246.706 98.0262C262.987 95.7098 279.249 93.6697 295.617 92.0846C301.656 91.4981 307.652 90.7235 313.652 89.8268C316.627 89.48 319.508 89.4368 322.5 89.4948C322.322 91.0011 322.322 91.0011 322.141 92.5378C320.875 105.044 322.446 115.217 330.133 125.592C331.497 127.49 332.48 129.397 333.5 131.495C313.021 134.501 292.49 136.956 271.927 139.3C261.535 140.493 251.182 141.786 240.845 143.387C232.187 144.72 223.501 145.805 214.804 146.857C212.077 147.188 209.351 147.526 206.625 147.864C204.867 148.079 203.109 148.293 201.352 148.507C200.548 148.606 199.745 148.706 198.918 148.809C194.75 149.308 190.708 149.601 186.5 149.495C185.823 148.25 185.159 146.999 184.5 145.745C183.943 144.701 183.943 144.701 183.375 143.635C182.5 141.495 182.5 141.495 182.5 137.495C181.936 137.586 181.373 137.677 180.792 137.77C167.467 139.833 154.105 140.961 140.629 141.246C139.017 141.287 137.406 141.344 135.795 141.421C127.063 141.813 120.487 141.674 113.648 135.764C104.862 127.421 97.9533 117.458 97.3865 104.999C97.3917 104.146 97.397 103.292 97.4024 102.413C97.4056 101.481 97.4088 100.55 97.4121 99.5905C97.4205 98.6308 97.4289 97.6711 97.4375 96.6823C97.442 95.7033 97.4466 94.7242 97.4512 93.7155C97.4629 91.3085 97.4802 88.9017 97.5 86.4948Z" fill="#F4F4F4"/>
<path d="M303.5 138.495C303.5 142.785 303.5 147.075 303.5 151.495C304.447 151.374 305.395 151.252 306.371 151.128C309.93 150.674 313.49 150.229 317.05 149.786C318.582 149.594 320.115 149.4 321.647 149.204C329.959 148.14 338.1 147.228 346.5 147.495C346.026 148.361 345.551 149.227 345.063 150.12C341.504 157.807 341.128 167.603 343.406 175.725C345.648 181.393 348.405 186.255 352.266 190.971C353.5 192.495 353.5 192.495 354.5 194.495C347.462 196.022 340.458 197.068 333.305 197.87C323.675 198.988 314.058 200.178 304.445 201.432C303.154 201.6 301.863 201.768 300.533 201.941C295.239 202.631 289.946 203.322 284.653 204.015C269.669 205.977 254.688 207.881 239.659 209.456C233.241 210.14 226.891 211.023 220.525 212.093C215.847 212.714 211.209 212.665 206.5 212.495C205.851 210.913 205.206 209.329 204.563 207.745C204.203 206.863 203.843 205.981 203.473 205.073C202.111 201.464 201.374 198.317 201.367 194.456C201.366 193.711 201.365 192.966 201.363 192.198C201.367 191.43 201.371 190.661 201.375 189.87C201.371 189.094 201.367 188.318 201.363 187.518C201.373 181.748 201.373 181.748 202.5 179.495C201.701 179.446 200.902 179.397 200.078 179.346C198.98 179.272 197.882 179.197 196.75 179.12C195.683 179.05 194.615 178.981 193.516 178.909C190.251 178.634 187.081 178.067 183.859 177.475C177.38 176.369 171.064 176.151 164.5 176.182C162.745 176.185 162.745 176.185 160.955 176.188C151.362 176.298 142.184 177.412 132.765 179.131C128.699 179.784 124.601 180.136 120.5 180.495C123.362 177.544 126.284 174.821 129.438 172.182C137.391 165.214 141.353 157.141 145.5 147.495C147.989 147.816 150.478 148.138 152.966 148.461C155.086 148.735 157.206 149.008 159.327 149.279C168.406 150.45 168.406 150.45 172.547 151.174C178.588 152.21 184.291 152.581 190.406 152.178C191.148 152.132 191.889 152.085 192.653 152.037C199.645 151.555 206.554 150.655 213.484 149.625C217.326 149.055 221.171 148.51 225.016 147.964C225.839 147.846 226.661 147.729 227.509 147.608C240.448 145.777 253.418 144.183 266.383 142.551C268.295 142.309 270.206 142.068 272.117 141.827C273.029 141.712 273.941 141.598 274.88 141.479C281.113 140.69 287.325 139.81 293.532 138.833C296.875 138.452 300.138 138.439 303.5 138.495Z" fill="#F4F4F4"/>
<path d="M329.5 253.495C331.456 255.892 332.5 257.371 332.5 260.495C333.147 260.363 333.794 260.232 334.46 260.097C341.687 258.698 348.851 257.918 356.188 257.37C357.283 257.283 358.378 257.197 359.506 257.108C362.17 256.899 364.835 256.694 367.5 256.495C367.218 257.203 366.936 257.91 366.645 258.64C362.703 268.907 361.551 278.412 365.563 288.932C367.767 293.626 370.506 297.294 374.145 300.971C375.5 302.495 375.5 302.495 375.5 304.495C349.957 307.901 349.957 307.901 347.925 308.171C346.078 308.418 344.232 308.667 342.386 308.917C331.535 310.38 320.672 311.728 309.805 313.061C308.842 313.18 307.879 313.298 306.887 313.42C301.801 314.044 296.716 314.668 291.63 315.29C286.418 315.929 281.206 316.571 275.994 317.214C271.945 317.712 267.895 318.208 263.846 318.704C261.925 318.939 260.004 319.176 258.084 319.413C247.899 320.671 237.746 321.853 227.5 322.495C224.304 315.366 222.078 309.305 221.5 301.495C220.644 301.537 219.787 301.579 218.905 301.622C215.681 301.759 212.458 301.859 209.232 301.934C207.845 301.974 206.458 302.028 205.072 302.098C197.727 302.459 191.811 302.494 185.77 297.776C177.003 289.736 171.732 280.323 170.5 268.495C171.227 268.555 171.954 268.616 172.703 268.678C174.211 268.804 174.211 268.804 175.75 268.932C182.5 269.495 182.5 269.495 184.82 269.852C195.561 271.251 206.061 269.226 216.688 267.682C219.63 267.267 222.573 266.855 225.517 266.444C227.453 266.173 229.39 265.9 231.326 265.626C236.819 264.852 242.312 264.138 247.824 263.514C259.285 262.215 270.701 260.579 282.125 258.995C284.378 258.683 286.63 258.372 288.883 258.061C289.98 257.91 291.077 257.758 292.208 257.602C295.399 257.162 298.591 256.723 301.782 256.284C305.249 255.807 308.714 255.324 312.179 254.831C313.502 254.646 314.825 254.461 316.148 254.276C317.23 254.122 318.312 253.968 319.427 253.809C322.836 253.46 326.077 253.285 329.5 253.495Z" fill="#F5F4F4"/>
<path d="M345.5 247.495C352.647 248.077 359.595 249.16 366.625 250.557C367.582 250.744 368.538 250.93 369.523 251.122C371.85 251.575 374.175 252.033 376.5 252.495C374.932 255.662 373.225 258.688 371.402 261.714C367.976 268.478 368.496 278.197 370.184 285.421C373.487 294.233 378.627 300.456 386.5 305.495C383.2 307.695 381.387 307.979 377.501 308.501C375.619 308.76 375.619 308.76 373.7 309.024C372.307 309.207 370.913 309.391 369.52 309.574C368.055 309.772 366.589 309.971 365.124 310.171C361.139 310.711 357.152 311.241 353.166 311.769C349.831 312.211 346.497 312.658 343.163 313.104C335.286 314.159 327.408 315.205 319.529 316.246C311.426 317.316 303.326 318.403 295.227 319.497C288.259 320.438 281.29 321.368 274.319 322.29C270.163 322.839 266.007 323.393 261.853 323.958C257.935 324.49 254.016 325.008 250.095 325.516C248.667 325.704 247.239 325.896 245.812 326.093C231.223 328.106 217.636 326.516 203.132 324.517C201.65 324.316 200.169 324.116 198.687 323.915C194.707 323.376 190.728 322.831 186.75 322.285C184.256 321.942 181.762 321.601 179.268 321.26C170.547 320.067 161.827 318.869 153.107 317.667C145.01 316.551 136.912 315.447 128.813 314.349C121.827 313.402 114.842 312.444 107.859 311.48C103.701 310.906 99.5439 310.336 95.3849 309.776C91.4754 309.249 87.5678 308.711 83.6611 308.163C82.236 307.966 80.8103 307.772 79.3839 307.583C65.9821 305.803 54.4352 303.32 45.5 292.495C41.0567 284.722 40.0716 276.216 42.2305 267.569C44.0797 261.991 46.0648 257.414 50.5 253.495C55.5542 252.38 60.0295 252.587 65.086 253.393C66.2053 253.559 66.2053 253.559 67.3473 253.727C68.9885 253.971 70.629 254.218 72.269 254.47C76.8768 255.177 81.4897 255.85 86.1016 256.53C87.122 256.681 88.1423 256.833 89.1936 256.989C98.2965 258.333 107.408 259.608 116.523 260.866C117.254 260.967 117.985 261.068 118.738 261.172C123.172 261.783 127.607 262.394 132.042 263.004C137.759 263.79 143.475 264.577 149.192 265.366C151.122 265.632 153.053 265.898 154.983 266.163C156.15 266.324 157.317 266.484 158.519 266.65C159.533 266.79 160.548 266.929 161.593 267.073C164.57 267.505 167.535 267.99 170.5 268.495C170.829 269.746 170.829 269.746 171.164 271.022C173.974 280.995 177.731 288.503 185.5 295.495C186.224 296.349 186.949 297.204 187.695 298.085C192.867 302.379 200.491 301.283 206.875 301.307C208.293 301.33 209.711 301.356 211.129 301.383C214.586 301.446 218.042 301.479 221.5 301.495C221.766 302.508 222.031 303.521 222.305 304.565C222.661 305.917 223.018 307.268 223.375 308.62C223.549 309.285 223.723 309.95 223.902 310.635C224.076 311.293 224.25 311.95 224.43 312.628C224.587 313.225 224.744 313.822 224.906 314.437C225.689 317.151 226.595 319.819 227.5 322.495C228.559 322.35 229.619 322.205 230.71 322.055C257.39 318.411 284.097 315.04 310.835 311.856C324.408 310.239 337.964 308.573 351.496 306.643C352.404 306.514 353.312 306.385 354.248 306.253C356.069 305.993 357.889 305.73 359.709 305.464C365.034 304.715 370.122 304.356 375.5 304.495C374.981 303.912 374.461 303.329 373.926 302.729C365.496 292.819 361.684 284.075 362.129 270.936C362.68 265.824 364.212 262.071 366.5 257.495C362.896 257.807 359.292 258.12 355.688 258.432C354.683 258.519 353.678 258.606 352.643 258.696C345.927 259.279 339.213 259.879 332.5 260.495C331.51 258.185 330.52 255.875 329.5 253.495C336.1 252.505 342.7 251.515 349.5 250.495C347.52 249.01 347.52 249.01 345.5 247.495Z" fill="#F69346"/>
<path d="M356.5 32.4948C356.026 33.5467 355.551 34.5985 355.063 35.6823C350.884 45.558 351.997 55.5182 355.5 65.4948C358.026 70.5254 361.119 75.0108 364.5 79.4948C357 81.1224 349.495 82.2293 341.881 83.1747C340.047 83.4068 340.047 83.4068 338.177 83.6436C334.853 84.0636 331.528 84.4804 328.203 84.8955C324.705 85.3331 321.207 85.7745 317.709 86.2154C311.836 86.955 305.963 87.6917 300.09 88.4267C293.325 89.2732 286.561 90.1235 279.797 90.9761C273.259 91.8002 266.72 92.6221 260.181 93.4429C257.413 93.7903 254.645 94.1384 251.877 94.4871C248.001 94.9751 244.125 95.4598 240.248 95.9443C238.55 96.1586 238.55 96.1586 236.817 96.3772C230.054 97.2191 223.291 97.9251 216.5 98.4948C211.387 87.4631 208.087 76.5423 211.758 64.4245C214.864 56.348 219.011 50.9906 226.5 46.4948C229.877 45.3679 233.163 44.9855 236.699 44.6745C238.158 44.5099 238.158 44.5099 239.646 44.3419C242.824 43.99 246.005 43.6798 249.188 43.3698C251.417 43.1306 253.646 42.8886 255.875 42.644C260.47 42.1445 265.066 41.662 269.665 41.1945C276.174 40.5323 282.679 39.8311 289.184 39.1159C295.092 38.4669 301.001 37.8186 306.912 37.1889C317.771 36.0307 328.616 34.8218 339.432 33.3066C345.15 32.536 350.732 32.3643 356.5 32.4948Z" fill="#F1F1F1"/>
<path d="M43.1875 74.8073C52.786 81.345 66.2955 81.6099 77.5625 83.1198C79.9479 83.4437 82.333 83.7694 84.7177 84.0984C86.1885 84.3009 87.6599 84.5003 89.1316 84.6961C92.0516 85.0947 94.6956 85.56 97.5 86.4948C97.5146 87.0733 97.5292 87.6519 97.5442 88.248C98.0012 104.479 98.5179 117.567 109.875 130.12C110.741 130.904 111.608 131.687 112.5 132.495C112.953 133.07 113.407 133.645 113.874 134.238C117.092 137.851 119.52 139.342 124.361 140.095C129.078 140.349 133.782 140.202 138.5 140.057C140.111 140.039 141.721 140.024 143.332 140.012C152.366 139.897 161.189 139.206 170.131 137.925C174.31 137.391 178.296 137.345 182.5 137.495C184.48 142.94 184.48 142.94 186.5 148.495C198.424 147.922 210.204 146.53 222.041 145.021C225.164 144.623 228.288 144.232 231.412 143.842C240.748 142.669 250.065 141.437 259.363 139.995C271.534 138.115 283.766 136.765 296 135.37C299.463 134.974 302.925 134.577 306.387 134.177C308.519 133.931 310.651 133.687 312.784 133.446C313.74 133.336 314.697 133.225 315.682 133.111C316.518 133.016 317.355 132.921 318.217 132.823C320.367 132.514 322.398 132.027 324.5 131.495C326.082 131.429 327.667 131.409 329.25 131.432C330.049 131.441 330.848 131.45 331.672 131.46C332.275 131.471 332.878 131.483 333.5 131.495C332.969 130.817 332.438 130.139 331.891 129.44C324.479 119.675 319.535 110.045 320.5 97.4948C321.847 90.1473 321.847 90.1473 323.5 88.4948C325.5 88.454 327.5 88.4522 329.5 88.4948C329.356 89.1238 329.211 89.7529 329.063 90.401C326.585 101.825 326.873 111.132 333.313 121.307C335.988 125.081 338.82 127.715 342.5 130.495C343.513 131.482 344.516 132.479 345.5 133.495C337.86 134.976 330.23 136.101 322.5 136.995C321.516 137.112 320.533 137.229 319.52 137.35C314.749 137.913 309.977 138.45 305.198 138.935C294.14 140.059 283.13 141.421 272.118 142.925C267.229 143.592 262.339 144.249 257.449 144.905C256.456 145.038 255.463 145.172 254.44 145.309C242.556 146.898 230.657 148.378 218.757 149.846C217.984 149.941 217.212 150.037 216.416 150.135C214.913 150.32 213.41 150.505 211.908 150.689C208.375 151.125 204.847 151.58 201.323 152.079C200.018 152.262 198.712 152.446 197.367 152.635C196.231 152.801 195.096 152.966 193.925 153.136C187.308 153.829 181.299 153.461 174.738 152.436C174.026 152.328 173.313 152.219 172.579 152.107C170.323 151.763 168.068 151.411 165.813 151.057C154.158 149.19 154.158 149.19 142.418 148.046C132.048 147.357 121.776 145.623 111.5 144.12C109.376 143.812 107.253 143.505 105.129 143.198C100.941 142.592 96.7532 141.985 92.5657 141.377C91.5552 141.23 90.5447 141.083 89.5036 140.932C87.5266 140.644 85.5497 140.356 83.5729 140.068C73.166 138.551 62.7707 137.117 52.3125 135.995C14.9663 131.742 14.9663 131.742 5.93753 122.12C-0.110991 113.877 -0.456259 105.477 0.500028 95.4948C1.36087 92.1049 2.60662 89.4242 4.50003 86.4948C5.08397 85.5435 5.08397 85.5435 5.67972 84.5729C11.2234 76.8971 21.2901 74.2433 30.2617 72.7839C35.4982 72.1076 38.763 71.791 43.1875 74.8073Z" fill="#DF2D2D"/>
<path d="M331.5 201.495C330.84 202.629 330.18 203.764 329.5 204.932C325.572 213.857 326.112 225.055 329.563 234.057C332.069 239.278 335.377 243.455 339.5 247.495C336.77 250.224 334.823 250.043 331.005 250.513C330.332 250.598 329.66 250.683 328.967 250.771C326.714 251.054 324.458 251.325 322.203 251.596C320.603 251.795 319.002 251.995 317.402 252.195C313.082 252.735 308.762 253.263 304.441 253.79C299.962 254.339 295.484 254.896 291.006 255.453C289.196 255.678 287.387 255.904 285.577 256.129C284.677 256.241 283.778 256.352 282.852 256.468C280.105 256.809 277.358 257.149 274.611 257.489C262.946 258.932 251.287 260.413 239.633 261.932C238.907 262.027 238.181 262.121 237.433 262.219C231.245 263.025 225.057 263.832 218.87 264.646C215.171 265.132 211.472 265.615 207.773 266.096C206.154 266.311 206.154 266.311 204.502 266.53C203.019 266.723 203.019 266.723 201.505 266.919C200.653 267.031 199.801 267.143 198.923 267.258C196.433 267.501 194 267.536 191.5 267.495C190.85 266.08 190.205 264.663 189.563 263.245C189.203 262.456 188.843 261.667 188.473 260.854C184.9 252.187 185 240.166 187.371 231.202C188.55 228.709 189.804 226.666 191.5 224.495C192.314 223.451 192.314 223.451 193.145 222.385C195.793 219.396 197.688 217.727 201.563 216.62C202.862 216.579 204.161 216.537 205.5 216.495C215.212 215.948 224.805 214.91 234.441 213.604C235.847 213.417 237.252 213.23 238.657 213.043C241.609 212.65 244.561 212.255 247.512 211.857C252.099 211.239 256.688 210.628 261.276 210.017C274.172 208.297 287.065 206.562 299.953 204.788C300.832 204.667 301.711 204.547 302.617 204.422C306.472 203.893 310.327 203.36 314.18 202.816C315.478 202.637 316.776 202.457 318.113 202.272C319.734 202.044 319.734 202.044 321.388 201.811C324.777 201.467 328.095 201.441 331.5 201.495Z" fill="#F1F1F1"/>
<path d="M119.75 33.7448C121.415 33.9516 123.08 34.1552 124.745 34.3559C128.372 34.7981 131.995 35.2596 135.618 35.7345C141.801 36.5413 147.991 37.2823 154.184 38.0143C161.726 38.9071 169.268 39.8087 176.807 40.7288C184.738 41.6957 192.667 42.6448 200.613 43.4753C201.893 43.6099 203.173 43.7445 204.491 43.8832C206.75 44.1159 209.009 44.3413 211.268 44.5575C212.221 44.6554 213.174 44.7533 214.156 44.8542C214.959 44.9312 215.761 45.0082 216.588 45.0876C218.5 45.4948 218.5 45.4948 220.5 47.4948C219.448 48.4539 219.448 48.4539 218.375 49.4323C210.688 57.1855 207.504 65.07 207.188 75.8698C207.307 83.7906 209.589 90.2338 212.5 97.4948C198.985 95.7083 185.474 93.8954 171.967 92.0511C165.564 91.1779 159.16 90.3154 152.752 89.4748C146.441 88.6467 140.133 87.7947 133.827 86.9267C131.409 86.5983 128.991 86.2785 126.571 85.9677C123.173 85.5296 119.78 85.0607 116.387 84.5846C115.385 84.4628 114.383 84.341 113.35 84.2155C106.889 83.2658 102.857 81.4378 98.5 76.4948C96.7578 73.862 96.7578 73.862 95.625 71.3698C95.2357 70.5422 94.8464 69.7146 94.4453 68.862C90.6888 59.4552 91.9631 50.4355 95.8203 41.2839C96.6518 39.9033 96.6518 39.9033 97.5 38.4948C97.9689 37.6392 97.9689 37.6392 98.4473 36.7663C103.451 29.7711 112.371 32.7179 119.75 33.7448Z" fill="#56A3BB"/>
<path d="M40.9016 192.894C46.9463 194.741 53.0071 195.601 59.2617 196.424C60.4754 196.591 61.689 196.758 62.9394 196.929C65.5008 197.28 68.0627 197.628 70.625 197.972C75.6461 198.649 80.6639 199.349 85.6819 200.049C90.6435 200.739 95.606 201.422 100.569 202.105C104.356 202.626 108.144 203.148 111.932 203.671C123.784 205.304 135.637 206.934 147.5 208.495C147.5 208.825 147.5 209.155 147.5 209.495C140.932 209.634 134.744 209.121 128.25 208.182C117.767 206.736 107.269 205.608 96.7398 204.557C90.4293 203.921 84.1521 203.215 77.875 202.307C75.7509 202.03 73.626 201.758 71.5 201.495C69.9551 201.278 69.9551 201.278 68.3789 201.057C65.4768 200.811 63.3049 200.708 60.5 201.495C57.7125 204.136 56.0844 207.022 54.5 210.495C54.1275 211.26 53.755 212.026 53.3711 212.815C50.6809 221.091 51.6865 231.418 55.1367 239.284C58.38 244.906 58.38 244.906 63.6464 248.278C66.3579 248.832 69.0496 249.215 71.7969 249.549C72.8343 249.697 73.8718 249.844 74.9406 249.996C78.3742 250.478 81.8116 250.924 85.25 251.37C87.6521 251.701 90.0539 252.035 92.4554 252.371C97.5174 253.075 102.581 253.764 107.647 254.441C119.345 256.005 131.032 257.65 142.72 259.289C146.362 259.797 150.006 260.296 153.649 260.793C165.016 262.355 176.295 264 187.5 266.495C186.572 264.793 186.572 264.793 185.625 263.057C181.046 253.834 180.211 243.808 182.676 233.827C184.969 227.339 188.952 220.656 194.5 216.495C197.813 216.182 197.813 216.182 200.5 216.495C199.799 217.155 199.098 217.815 198.375 218.495C191.532 225.357 187.289 231.652 187.121 241.489C187.122 242.357 187.124 243.225 187.125 244.12C187.123 245.455 187.123 245.455 187.121 246.817C187.232 253.725 188.605 259.213 191.5 265.495C191.5 266.155 191.5 266.815 191.5 267.495C192.062 267.405 192.625 267.316 193.204 267.224C216.741 263.523 240.39 260.719 264.037 257.832C272.693 256.775 281.348 255.713 290.002 254.65C292.972 254.286 295.941 253.924 298.911 253.562C311.79 251.986 324.648 250.282 337.5 248.495C337.728 246.082 337.728 246.082 334.813 243.62C327.351 234.97 325.557 225.47 326.066 214.382C326.719 208.535 328.287 204.708 332.5 200.495C335.625 200.37 335.625 200.37 338.5 200.495C338.223 201.037 337.946 201.58 337.66 202.139C337.298 202.855 336.936 203.57 336.563 204.307C336.203 205.015 335.843 205.723 335.473 206.452C332.138 213.455 332.442 223.034 334.219 230.526C336.602 236.753 339.871 242.742 345.5 246.495C345.5 247.155 345.5 247.815 345.5 248.495C347.15 249.155 348.8 249.815 350.5 250.495C350.5 250.825 350.5 251.155 350.5 251.495C343.092 252.787 335.721 253.692 328.234 254.346C316.285 255.441 304.399 256.963 292.504 258.527C288.911 258.998 285.318 259.464 281.725 259.928C279.398 260.231 277.072 260.535 274.746 260.839C273.693 260.975 272.639 261.112 271.554 261.252C265.421 262.061 259.327 263.01 253.228 264.047C249.713 264.624 246.204 265.06 242.664 265.46C241.646 265.577 241.646 265.577 240.608 265.696C238.447 265.944 236.286 266.188 234.125 266.432C221.951 267.806 221.951 267.806 209.813 269.456C208.836 269.6 207.859 269.745 206.853 269.893C205.117 270.157 203.383 270.431 201.651 270.719C195.118 271.709 189.045 271.252 182.5 270.495C181.858 270.422 181.216 270.348 180.555 270.273C175.178 269.655 169.807 268.986 164.438 268.307C163.576 268.199 162.714 268.091 161.826 267.979C137.3 264.894 112.827 261.427 88.3633 257.885C85.6199 257.489 82.8765 257.093 80.1331 256.697C78.3458 256.439 76.5586 256.18 74.7715 255.92C63.0627 254.221 51.3624 252.642 39.5721 251.607C28.8669 250.545 18.8415 247.277 11.3125 239.307C6.28589 233.093 4.89842 226.215 5.15238 218.331C6.13855 210.286 9.2149 202.783 15.5 197.495C23.3193 192.431 31.9066 189.91 40.9016 192.894Z" fill="#F8BB43"/>
<path d="M99.9759 147.35C100.912 147.501 101.848 147.652 102.813 147.807C103.796 147.931 104.779 148.055 105.792 148.182C107.908 148.45 110.021 148.736 112.133 149.036C115.657 149.516 119.181 149.897 122.719 150.257C125.083 150.502 127.448 150.748 129.813 150.995C130.945 151.113 132.078 151.23 133.245 151.351C134.295 151.471 135.344 151.59 136.426 151.714C137.358 151.816 138.291 151.919 139.251 152.024C141.5 152.495 141.5 152.495 143.5 154.495C138.452 164.996 131.068 172.937 121.5 179.495C125.968 179.039 130.387 178.553 134.805 177.741C155.247 174.048 177.199 173.588 197.5 178.495C198.5 180.495 198.5 180.495 198.063 182.557C196.132 192.638 198.689 202.135 202.5 211.495C193.846 210.916 185.291 210.028 176.703 208.823C175.522 208.66 174.341 208.497 173.124 208.33C169.332 207.806 165.541 207.276 161.75 206.745C159.815 206.475 159.815 206.475 157.841 206.2C150.192 205.133 142.543 204.058 134.896 202.975C131.825 202.541 128.755 202.109 125.684 201.678C121.74 201.123 117.798 200.558 113.857 199.98C111.874 199.691 109.89 199.411 107.905 199.131C94.3549 197.102 94.3549 197.102 89.6094 192.768C83.1525 183.751 81.5231 175.571 82.5 164.495C84.1338 154.884 89.4292 146.149 99.9759 147.35Z" fill="#9DC16F"/>
<path d="M53.875 81.0573C55.1549 81.0632 55.1549 81.0632 56.4607 81.0693C69.6812 81.347 84.9096 82.298 97.5 86.4948C97.5146 87.0733 97.5292 87.6519 97.5442 88.248C98.0025 104.525 98.5343 117.609 109.938 130.182C113.075 133.014 116.262 135.779 119.5 138.495C115.78 139.769 112.684 139.32 108.823 138.817C107.83 138.69 107.83 138.69 106.816 138.561C104.63 138.279 102.446 137.984 100.262 137.686C99.5129 137.585 98.7641 137.484 97.9925 137.379C94.0279 136.842 90.0649 136.293 86.1028 135.737C82.0244 135.167 77.9419 134.637 73.8571 134.115C70.7044 133.705 67.5564 133.264 64.409 132.815C62.9064 132.606 61.4021 132.408 59.8964 132.223C46.6764 130.58 46.6764 130.58 42.1751 125.6C36.0583 117.182 34.4059 108.791 35.5 98.4948C36.7002 93.202 39.2745 88.8291 42.5 84.4948C42.8635 83.9534 43.2271 83.412 43.6016 82.8542C46.7205 80.6209 50.1798 81.0131 53.875 81.0573Z" fill="#F14040"/>
<path d="M356.5 32.4948C356.026 33.5467 355.551 34.5985 355.063 35.6823C353.807 38.5965 352.978 41.3423 352.5 44.4948C352.17 43.8348 351.84 43.1748 351.5 42.4948C350.613 42.6191 349.725 42.7434 348.811 42.8715C330.062 45.4837 311.302 47.9324 292.496 50.1003C291.112 50.2599 291.112 50.2599 289.7 50.4227C283.113 51.1809 276.525 51.9321 269.938 52.6823C263.253 53.4442 256.569 54.2087 249.885 54.9779C247.265 55.2785 244.644 55.5753 242.023 55.8718C227.06 56.6618 227.06 56.6618 213.5 61.4948C215.491 55.3396 219.252 50.9357 224.612 47.4276C228.319 45.596 232.339 45.3878 236.406 44.9674C237.383 44.8535 238.36 44.7395 239.366 44.6221C242.576 44.2515 245.788 43.9043 249 43.5573C251.243 43.303 253.486 43.0474 255.728 42.7904C262.65 42.003 269.575 41.2472 276.5 40.4948C278.657 40.2587 280.813 40.0224 282.97 39.7858C290.949 38.9116 298.929 38.0402 306.911 37.1896C317.77 36.0303 328.615 34.8218 339.432 33.3066C345.15 32.536 350.732 32.3643 356.5 32.4948Z" fill="#DDDFDF"/>
<path d="M331.5 201.495C330.716 203.144 329.922 204.789 329.125 206.432C328.464 207.807 328.464 207.807 327.789 209.21C326.5 211.495 326.5 211.495 324.5 212.495C321.728 212.89 318.965 213.239 316.184 213.555C315.321 213.656 314.459 213.757 313.57 213.861C310.693 214.197 307.815 214.527 304.938 214.858C302.914 215.093 300.891 215.329 298.868 215.565C293.502 216.19 288.136 216.81 282.77 217.429C277.448 218.044 272.126 218.663 266.805 219.282C264.714 219.525 262.622 219.768 260.531 220.011C256.396 220.491 252.262 220.972 248.127 221.452C246.104 221.687 244.081 221.922 242.059 222.157C241.078 222.271 240.097 222.385 239.086 222.503C233.588 223.14 228.089 223.77 222.589 224.391C219.415 224.749 216.241 225.112 213.068 225.476C211.629 225.639 210.191 225.801 208.752 225.96C198.978 227.017 198.978 227.017 189.5 229.495C190.93 224.252 194.26 220.723 198.5 217.495C201.563 216.62 201.563 216.62 205.5 216.495C215.212 215.948 224.805 214.91 234.441 213.604C235.847 213.417 237.252 213.23 238.657 213.043C241.609 212.65 244.561 212.255 247.512 211.857C252.099 211.239 256.688 210.628 261.276 210.017C274.172 208.297 287.065 206.562 299.953 204.788C300.832 204.667 301.711 204.547 302.617 204.422C306.472 203.893 310.327 203.36 314.18 202.816C315.478 202.637 316.776 202.457 318.113 202.272C319.734 202.044 319.734 202.044 321.388 201.811C324.777 201.467 328.095 201.441 331.5 201.495Z" fill="#DEDFDD"/>
<path d="M37.6875 197.182C38.7346 197.177 38.7346 197.177 39.8028 197.173C43.5169 197.211 46.3469 197.45 49.5 199.495C49.1017 199.956 48.7034 200.418 48.293 200.893C40.5634 210.409 39.2915 220.41 40.5 232.495C41.3414 235.605 42.3522 238.464 43.625 241.421C44.5 243.495 44.5 243.495 44.5 245.495C32.5705 245.041 24.2878 242.235 15.5782 233.854C11.4933 229.216 10.184 225.135 10.5625 218.995C11.759 211.677 14.7922 206.58 20.4258 201.819C26.2309 198.113 30.9237 197.024 37.6875 197.182Z" fill="#FEC84F"/>
<path d="M64.5 28.4948C64.0179 29.2682 63.5358 30.0417 63.0391 30.8385C56.0868 42.3027 53.6789 51.5848 56.875 64.8073C57.8493 68.4929 59.027 71.9787 60.5 75.4948C52.1301 74.834 44.5157 70.5093 38.9102 64.3737C35.5342 59.8756 34.1859 55.6153 34.5625 49.9948C36.018 41.171 40.3196 35.6751 47.5 30.4948C53.1713 27.5241 58.301 27.3481 64.5 28.4948Z" fill="#56A3BB"/>
<path d="M33.5 79.4948C33.1017 80.1123 32.7034 80.7297 32.293 81.3659C25.6204 92.0323 22.417 101.654 25.1094 114.374C25.8163 116.794 26.6026 119.14 27.5 121.495C27.8919 122.526 28.2838 123.557 28.6875 124.62C28.9557 125.239 29.2238 125.857 29.5 126.495C20.23 124.329 12.9089 120.608 7.50003 112.495C5.01754 108.026 4.7429 103.479 5.50003 98.4948C8.38265 89.9499 13.1213 84.9274 20.875 80.6198C25.2276 79.269 28.9877 79.2185 33.5 79.4948Z" fill="#F13F3F"/>
<path d="M52.5 143.495C50.9378 147.531 49.1849 151.467 47.4024 155.409C43.6896 163.992 44.6748 174.748 47.6485 183.444C48.5086 185.515 49.4668 187.505 50.5 189.495C43.0214 189.17 36.9992 185.768 31.5625 180.682C27.0443 175.643 26.1793 171.56 26.2891 164.862C26.9192 157.791 30.2515 152.185 35.5 147.495C40.9707 143.582 45.8937 142.944 52.5 143.495Z" fill="#9CC06E"/>
<path d="M83.625 29.9323C84.7207 30.0341 85.8164 30.136 86.9453 30.2409C87.7884 30.3247 88.6314 30.4085 89.5 30.4948C89.5 33.8498 89.0659 34.3795 87.1875 36.9948C81.8065 45.3261 80.235 54.8514 82.0742 64.5104C83.321 69.867 84.724 74.7358 87.5 79.4948C76.7675 78.559 76.7675 78.559 73.0625 74.5573C67.0525 66.1084 65.247 56.6965 66.5 46.4948C68.146 40.1045 70.9128 35.2028 75.5 30.4948C78.3356 29.077 80.4909 29.6322 83.625 29.9323Z" fill="#56A3BB"/>
<path d="M73.1875 144.807C73.8894 144.869 74.5913 144.93 75.3145 144.993C77.0443 145.146 78.7724 145.318 80.5 145.495C80.0179 146.28 79.5358 147.065 79.0391 147.874C72.5594 158.651 69.2496 168.477 72.1055 181.19C72.8222 183.337 73.6254 185.409 74.5 187.495C75.1667 189.495 75.8334 191.495 76.5 193.495C72.1251 193.748 68.7709 193.475 65.2266 190.741C57.4304 182.409 55.8036 174.57 56.0078 163.303C56.7816 157.316 59.1555 152.475 62.5 147.495C62.9022 146.885 63.3044 146.275 63.7188 145.647C66.6736 143.736 69.8372 144.454 73.1875 144.807Z" fill="#9CC06E"/>
<path d="M65.5 23.4948C72.1913 23.3713 78.6233 23.8286 85.2635 24.6247C86.8221 24.8052 86.8221 24.8052 88.4122 24.9894C91.8366 25.3874 95.2601 25.7926 98.6836 26.1979C101.1 26.4802 103.517 26.7621 105.934 27.0436C112.308 27.7871 118.682 28.5369 125.055 29.2879C131.416 30.0364 137.777 30.779 144.139 31.5221C149.091 32.1013 154.044 32.6808 158.996 33.2604C160.207 33.4021 161.417 33.5438 162.664 33.6898C174.222 35.0432 185.778 36.4011 197.329 37.8092C199.664 38.0919 202 38.3742 204.335 38.6563C206.378 38.9052 208.421 39.1605 210.463 39.4162C221.098 40.7021 230.948 40.6138 241.574 39.3932C243.162 39.2177 243.162 39.2177 244.781 39.0386C247.062 38.7856 249.342 38.5301 251.623 38.2724C255.24 37.8639 258.858 37.4624 262.476 37.0627C272.74 35.9269 283.003 34.7757 293.266 33.6217C299.54 32.9164 305.815 32.2171 312.091 31.521C315.62 31.1273 319.148 30.726 322.677 30.3244C324.861 30.0813 327.046 29.8386 329.23 29.5964C330.197 29.4841 331.164 29.3719 332.16 29.2563C338.959 28.5139 345.663 28.376 352.5 28.4948C349.027 30.5601 345.913 30.9617 341.919 31.3769C341.264 31.4473 340.608 31.5176 339.933 31.5901C337.755 31.8221 335.577 32.0431 333.398 32.2643C331.858 32.4266 330.318 32.5897 328.778 32.7535C325.507 33.1 322.236 33.442 318.965 33.7802C311.339 34.5686 303.715 35.3765 296.091 36.1847C294.409 36.363 292.727 36.5409 291.044 36.7186C280.935 37.7866 270.833 38.8941 260.742 40.1315C259.766 40.2511 258.789 40.3708 257.782 40.494C253.49 41.0234 249.2 41.5657 244.912 42.123C243.426 42.3095 241.939 42.496 240.453 42.6823C239.238 42.8408 238.023 42.9994 236.771 43.1628C226.298 44.1744 215.859 43.4272 205.45 42.1654C204.228 42.024 203.006 41.8825 201.748 41.7367C198.438 41.3519 195.13 40.9599 191.822 40.5647C188.32 40.1479 184.817 39.7403 181.314 39.3317C175.424 38.6433 169.536 37.9492 163.647 37.2509C155.429 36.2762 147.209 35.3115 138.989 34.3491C114.483 31.4787 89.9786 28.5962 65.5 25.4948C65.5 24.8348 65.5 24.1748 65.5 23.4948Z" fill="#53A1B9"/>
<path d="M346.5 147.495C346.026 148.361 345.551 149.227 345.063 150.12C343.568 153.349 342.918 155.985 342.5 159.495C342.005 158.505 342.005 158.505 341.5 157.495C339.682 157.785 339.682 157.785 337.828 158.081C325.747 159.971 313.677 161.394 301.5 162.495C302.16 158.865 302.82 155.235 303.5 151.495C308.016 150.917 312.532 150.348 317.05 149.786C318.582 149.594 320.115 149.4 321.647 149.204C329.959 148.14 338.1 147.228 346.5 147.495Z" fill="#DFDFDE"/>
<path d="M239.223 100.397C240.209 100.399 241.195 100.4 242.211 100.401C245.328 100.407 248.445 100.42 251.563 100.432C253.689 100.437 255.816 100.442 257.943 100.446C263.129 100.457 268.314 100.474 273.5 100.495C273.5 100.825 273.5 101.155 273.5 101.495C272.853 101.509 272.205 101.524 271.538 101.539C247.315 102.143 224.306 105.238 201 111.87C172.393 119.939 144.286 124.323 114.5 123.495C114.5 123.165 114.5 122.835 114.5 122.495C115.571 122.425 116.643 122.355 117.747 122.283C145.222 120.63 145.222 120.63 172.307 116.002C174.536 115.487 176.77 115.019 179.012 114.561C188.171 112.659 197.132 110.276 206.07 107.513C211.873 105.77 217.455 104.889 223.5 104.495C223.5 103.835 223.5 103.175 223.5 102.495C222.18 102.165 220.86 101.835 219.5 101.495C226.118 100.641 232.555 100.36 239.223 100.397Z" fill="#CFE4E8"/>
<path d="M367.5 257.495C367.026 258.402 366.551 259.31 366.063 260.245C364.839 262.79 364.105 264.791 363.5 267.495C359.82 268.066 356.133 268.539 352.438 268.995C351.399 269.157 350.361 269.32 349.291 269.487C341.64 270.361 341.64 270.361 338.192 267.741C336.439 265.737 334.916 263.747 333.5 261.495C336.792 259.586 339.674 259.047 343.438 258.608C345.151 258.408 345.151 258.408 346.898 258.204C348.087 258.073 349.276 257.942 350.5 257.807C351.689 257.665 352.877 257.522 354.102 257.376C363.768 256.279 363.768 256.279 367.5 257.495Z" fill="#E0DEDD"/>
<path d="M278.5 110.495C278.5 110.825 278.5 111.155 278.5 111.495C277.574 111.517 277.574 111.517 276.63 111.539C262.053 111.92 247.875 113.037 233.5 115.495C232.247 115.698 230.994 115.902 229.703 116.112C220.764 117.721 212.172 120.285 203.474 122.868C178.853 130.157 155.196 132.991 129.5 133.495C132.695 131.635 135.236 131.178 138.91 130.967C140.503 130.866 140.503 130.866 142.127 130.762C143.261 130.695 144.395 130.627 145.563 130.557C164.94 129.181 182.628 125.523 201.298 120.311C227.584 112.98 251.181 110.118 278.5 110.495Z" fill="#D1E5E9"/>
<path d="M178.5 138.495C180.371 141.631 181.322 145.048 182.5 148.495C171.324 147.834 160.312 146.089 149.25 144.432C147.33 144.147 145.409 143.863 143.488 143.579C138.825 142.888 134.162 142.193 129.5 141.495C129.5 141.165 129.5 140.835 129.5 140.495C130.264 140.475 131.029 140.455 131.816 140.435C151.227 139.969 151.227 139.969 170.496 137.799C173.568 137.488 175.617 137.371 178.5 138.495Z" fill="#F14141"/>
<path d="M325.5 261.495C325.5 261.825 325.5 262.155 325.5 262.495C324.662 262.554 323.823 262.614 322.959 262.675C298.521 264.485 275.836 268.854 252.5 276.495C230.809 283.586 208.221 285.81 185.5 285.495C185.5 285.165 185.5 284.835 185.5 284.495C186.308 284.43 187.116 284.365 187.949 284.299C214.128 282.143 238.655 277.476 263.873 270.098C284.515 264.078 303.989 261.246 325.5 261.495Z" fill="#D2E6E9"/>
<path d="M321.063 271.432C322.719 271.439 322.719 271.439 324.408 271.446C327.106 271.458 329.803 271.474 332.5 271.495C332.5 271.825 332.5 272.155 332.5 272.495C331.676 272.529 330.852 272.564 330.003 272.599C305.662 273.691 284.177 277.897 260.91 285.251C237.905 292.512 216.602 294.914 192.5 294.495C192.5 294.165 192.5 293.835 192.5 293.495C193.28 293.445 194.06 293.395 194.864 293.343C198.472 293.108 202.08 292.864 205.688 292.62C206.914 292.541 208.141 292.463 209.404 292.382C221.419 291.557 233.018 289.845 244.688 286.87C245.701 286.615 246.714 286.361 247.758 286.099C255.589 284.089 263.292 281.744 271 279.307C280.444 276.325 289.676 273.835 299.5 272.495C300.156 272.401 300.812 272.308 301.488 272.211C308.015 271.368 314.49 271.381 321.063 271.432Z" fill="#D1E5E9"/>
<path d="M215.94 171.642C219.123 172.285 222.309 172.898 225.5 173.495C226.52 173.692 227.54 173.889 228.59 174.092C239.973 176.025 251.366 175.716 262.875 175.62C264.979 175.61 267.083 175.601 269.188 175.592C274.292 175.571 279.396 175.536 284.5 175.495C284.5 175.825 284.5 176.155 284.5 176.495C257.044 179.83 231.937 178.204 204.926 172.703C191.059 169.899 177.726 168.174 163.563 168.37C162.295 168.379 161.027 168.388 159.721 168.397C156.647 168.42 153.574 168.453 150.5 168.495C150.5 168.165 150.5 167.835 150.5 167.495C172.682 164.68 194.174 167.227 215.94 171.642Z" fill="#D2E5E9"/>
<path d="M322.5 89.4948C322.17 92.1348 321.84 94.7748 321.5 97.4948C321.005 96.0098 321.005 96.0098 320.5 94.4948C319.063 94.6766 319.063 94.6766 317.598 94.862C314.013 95.3142 310.427 95.7599 306.84 96.2038C305.294 96.396 303.748 96.59 302.203 96.7858C299.969 97.0685 297.735 97.3447 295.5 97.6198C294.819 97.7073 294.139 97.7948 293.438 97.8849C288.738 98.4551 284.222 98.7289 279.5 98.4948C278.84 97.8348 278.18 97.1748 277.5 96.4948C274.929 95.8471 274.929 95.8471 272.5 95.4948C272.5 95.1648 272.5 94.8348 272.5 94.4948C273.3 94.4144 274.1 94.334 274.924 94.2512C278.637 93.8765 282.35 93.4991 286.063 93.1198C286.727 93.052 287.391 92.9842 288.076 92.9143C296.626 92.0386 305.15 91.0975 313.652 89.8268C316.627 89.48 319.508 89.4368 322.5 89.4948Z" fill="#DCDEDE"/>
<path d="M165.5 156.495C183.222 155.722 199.745 157.584 217.15 160.866C221.674 161.715 226.209 162.488 230.75 163.245C232.034 163.467 233.318 163.688 234.641 163.917C242.667 165.119 250.552 165.641 258.664 165.592C259.582 165.591 260.5 165.59 261.446 165.588C264.339 165.583 267.232 165.57 270.125 165.557C272.103 165.552 274.081 165.548 276.059 165.544C280.872 165.533 285.686 165.515 290.5 165.495C290.5 165.825 290.5 166.155 290.5 166.495C284.336 167.262 278.31 167.665 272.102 167.698C271.227 167.704 270.353 167.709 269.452 167.715C267.608 167.725 265.764 167.731 263.92 167.735C261.167 167.745 258.414 167.776 255.66 167.807C243.649 167.879 232.29 166.738 220.5 164.495C219.42 164.3 218.341 164.106 217.228 163.905C214.607 163.429 211.991 162.933 209.375 162.432C194.798 159.727 180.298 158.252 165.5 157.495C165.5 157.165 165.5 156.835 165.5 156.495Z" fill="#CDE3E7"/>
<path d="M218.5 149.495C218.5 150.155 218.5 150.815 218.5 151.495C223.041 152.091 227.585 152.661 232.132 153.208C233.646 153.391 235.16 153.578 236.673 153.77C253.88 155.918 271.184 156.124 288.5 156.495C288.5 156.825 288.5 157.155 288.5 157.495C260.428 160.79 233.056 156.55 205.5 151.495C205.5 151.165 205.5 150.835 205.5 150.495C206.916 150.325 208.333 150.159 209.75 149.995C210.933 149.856 210.933 149.856 212.141 149.714C214.5 149.495 214.5 149.495 218.5 149.495Z" fill="#D1E5E9"/>
<path d="M198.5 100.495C173.931 113.605 137.724 114.858 110.5 114.495C110.5 114.165 110.5 113.835 110.5 113.495C114.029 112.647 117.395 112.392 121.017 112.306C144.315 111.664 169.846 107.899 191.902 100.327C194.642 99.4492 195.853 99.4767 198.5 100.495Z" fill="#D0E4E8"/>
<path d="M256.5 263.495C237.482 276.173 203.628 277.335 181.5 276.495C181.5 276.165 181.5 275.835 181.5 275.495C182.414 275.405 183.327 275.315 184.269 275.223C207.126 272.927 234.397 262.442 256.5 263.495Z" fill="#D5E7EB"/>
<path d="M108.5 144.495C119.335 144.01 134.561 143.525 144.5 148.495C144.17 149.485 143.84 150.475 143.5 151.495C143.005 151 143.005 151 142.5 150.495C139.987 150.121 137.489 149.803 134.965 149.522C134.212 149.435 133.458 149.347 132.682 149.257C130.268 148.978 127.853 148.705 125.438 148.432C123.804 148.245 122.171 148.056 120.537 147.868C116.525 147.406 112.513 146.949 108.5 146.495C108.5 145.835 108.5 145.175 108.5 144.495Z" fill="#9CB768"/>
<path d="M56.5 138.495C67.0932 138.825 77.5605 139.458 88.0625 140.932C88.96 141.055 89.8574 141.177 90.782 141.303C91.6184 141.427 92.4547 141.551 93.3164 141.678C94.0532 141.787 94.79 141.896 95.5491 142.008C97.5 142.495 97.5 142.495 100.5 144.495C94.5656 144.577 88.8522 144.336 82.9649 143.62C82.2007 143.531 81.4366 143.442 80.6493 143.351C78.2448 143.07 75.8412 142.783 73.4375 142.495C71.7924 142.302 70.1472 142.109 68.502 141.917C64.5007 141.448 60.5002 140.973 56.5 140.495C56.5 139.835 56.5 139.175 56.5 138.495Z" fill="#9BBF6C"/>
<path d="M239.223 100.397C240.209 100.399 241.195 100.4 242.211 100.401C245.328 100.407 248.445 100.42 251.563 100.432C253.689 100.437 255.816 100.442 257.943 100.446C263.129 100.457 268.314 100.474 273.5 100.495C273.5 100.825 273.5 101.155 273.5 101.495C272.842 101.515 272.184 101.534 271.507 101.555C260.307 101.907 249.187 102.285 238.063 103.682C231.406 104.506 226.027 104.421 219.5 102.495C219.5 102.165 219.5 101.835 219.5 101.495C226.118 100.641 232.555 100.36 239.223 100.397Z" fill="#D5E7EA"/>
<path d="M67.5 137.495C75.7671 138.229 83.9698 139.342 92.1875 140.495C93.4669 140.673 94.7463 140.851 96.0645 141.034C101.878 141.843 107.69 142.663 113.5 143.495C113.5 143.825 113.5 144.155 113.5 144.495C108.954 145.668 104.17 146.036 99.5 145.495C98.84 144.835 98.18 144.175 97.5 143.495C95.2634 143.049 93.005 142.71 90.7422 142.424C90.0792 142.339 89.4161 142.253 88.733 142.164C86.6146 141.891 84.4949 141.63 82.375 141.37C80.9387 141.187 79.5025 141.003 78.0664 140.819C74.5454 140.369 71.0231 139.929 67.5 139.495C67.5 138.835 67.5 138.175 67.5 137.495Z" fill="#95AA5C"/>
<path d="M255.094 144.964C262.873 145.902 270.741 145.599 278.563 145.557C280.208 145.552 281.853 145.548 283.498 145.544C287.499 145.533 291.499 145.515 295.5 145.495C295.5 145.825 295.5 146.155 295.5 146.495C289.536 147.364 283.772 147.629 277.75 147.592C276.851 147.591 275.953 147.59 275.027 147.588C272.184 147.583 269.342 147.57 266.5 147.557C264.561 147.552 262.622 147.548 260.684 147.544C255.956 147.533 251.228 147.515 246.5 147.495C246.17 146.835 245.84 146.175 245.5 145.495C248.932 144.703 251.583 144.506 255.094 144.964Z" fill="#CEE3E8"/>
<path d="M256.5 263.495C253.023 265.813 249.527 266.889 245.563 268.057C244.432 268.392 244.432 268.392 243.278 268.734C237.05 270.497 230.982 271.357 224.5 271.495C226.824 269.171 228.026 268.956 231.184 268.241C232.111 268.026 233.039 267.812 233.994 267.59C234.965 267.373 235.937 267.156 236.938 266.932C238.853 266.495 240.769 266.056 242.684 265.616C243.535 265.424 244.386 265.233 245.263 265.036C249.257 264.07 252.34 263.402 256.5 263.495Z" fill="#CDE2E5"/>
<path d="M218.5 149.495C218.5 150.155 218.5 150.815 218.5 151.495C223.945 151.99 223.945 151.99 229.5 152.495C229.83 153.485 230.16 154.475 230.5 155.495C222.128 154.346 213.8 153.087 205.5 151.495C205.5 151.165 205.5 150.835 205.5 150.495C206.916 150.325 208.333 150.159 209.75 149.995C210.933 149.856 210.933 149.856 212.141 149.714C214.5 149.495 214.5 149.495 218.5 149.495Z" fill="#CEE3E8"/>
<path d="M341.5 162.495C341.5 164.145 341.5 165.795 341.5 167.495C341.17 166.505 340.84 165.515 340.5 164.495C339.539 164.711 339.539 164.711 338.559 164.932C333.42 166.035 328.753 166.723 323.5 166.495C323.5 165.835 323.5 165.175 323.5 164.495C325.75 164.158 328 163.825 330.25 163.495C331.503 163.309 332.756 163.124 334.047 162.932C337.5 162.495 337.5 162.495 341.5 162.495Z" fill="#E2E3E1"/>
<path d="M351.5 53.4948C351.83 53.4948 352.16 53.4948 352.5 53.4948C352.5 55.1448 352.5 56.7948 352.5 58.4948C349.896 58.8304 347.292 59.1634 344.688 59.4948C343.95 59.5902 343.212 59.6856 342.451 59.7839C339.446 60.1646 336.533 60.4948 333.5 60.4948C333.5 59.8348 333.5 59.1748 333.5 58.4948C335.374 58.1552 337.249 57.8234 339.125 57.4948C340.169 57.3092 341.213 57.1235 342.289 56.9323C345.406 56.5076 348.359 56.4193 351.5 56.4948C351.5 55.5048 351.5 54.5148 351.5 53.4948Z" fill="#DCDFE0"/>
<path d="M320.5 105.495C320.83 106.815 321.16 108.135 321.5 109.495C315.032 111.007 309.144 111.709 302.5 111.495C302.5 110.835 302.5 110.175 302.5 109.495C308.526 108.424 314.389 108.395 320.5 108.495C320.5 107.505 320.5 106.515 320.5 105.495Z" fill="#E3E0E0"/>
<path d="M370.5 297.495C370.83 298.155 371.16 298.815 371.5 299.495C369.272 299.833 367.042 300.165 364.813 300.495C362.95 300.773 362.95 300.773 361.051 301.057C358.141 301.416 355.423 301.584 352.5 301.495C352.5 300.835 352.5 300.175 352.5 299.495C354.374 299.155 356.249 298.823 358.125 298.495C359.169 298.309 360.213 298.124 361.289 297.932C364.406 297.508 367.359 297.419 370.5 297.495Z" fill="#E4E2E0"/>
<path d="M362.5 280.495C362.17 281.485 361.84 282.475 361.5 283.495C353.085 283.99 353.085 283.99 344.5 284.495C344.5 283.835 344.5 283.175 344.5 282.495C346.937 282.159 349.375 281.826 351.813 281.495C352.503 281.399 353.193 281.304 353.904 281.206C356.797 280.815 359.578 280.495 362.5 280.495Z" fill="#E3E3E3"/>
<path d="M342.5 175.495C343.16 176.815 343.82 178.135 344.5 179.495C335.59 180.485 335.59 180.485 326.5 181.495C326.5 180.835 326.5 180.175 326.5 179.495C331.88 178.304 336.953 177.203 342.5 177.495C342.5 176.835 342.5 176.175 342.5 175.495Z" fill="#E2E2E1"/>
<path d="M341.5 171.495C341.83 172.155 342.16 172.815 342.5 173.495C333.095 174.485 333.095 174.485 323.5 175.495C323.5 174.835 323.5 174.175 323.5 173.495C328.747 170.871 335.742 171.372 341.5 171.495Z" fill="#E2E3E2"/>
<path d="M327.5 123.495C328.16 124.485 328.82 125.475 329.5 126.495C320.59 127.485 320.59 127.485 311.5 128.495C311.5 127.835 311.5 127.175 311.5 126.495C314.431 125.029 317.386 124.874 320.625 124.432C321.906 124.256 323.188 124.079 324.508 123.897C325.495 123.764 326.483 123.632 327.5 123.495Z" fill="#E3E2E2"/>
<path d="M326.5 216.495C326.5 218.145 326.5 219.795 326.5 221.495C326.17 220.505 325.84 219.515 325.5 218.495C323.798 218.99 323.798 218.99 322.063 219.495C317.502 220.653 313.178 220.69 308.5 220.495C308.5 219.835 308.5 219.175 308.5 218.495C311.312 218.161 314.125 217.828 316.938 217.495C317.74 217.399 318.542 217.304 319.369 217.206C325.387 216.495 325.387 216.495 326.5 216.495Z" fill="#E4E1DC"/>
<path d="M323.5 113.495C323.5 114.155 323.5 114.815 323.5 115.495C317.38 116.899 311.783 117.727 305.5 117.495C305.5 116.835 305.5 116.175 305.5 115.495C307.937 115.159 310.375 114.826 312.813 114.495C313.503 114.399 314.193 114.304 314.904 114.206C317.797 113.815 320.578 113.495 323.5 113.495Z" fill="#E2DADA"/>
<path d="M363.5 285.495C363.83 286.485 364.16 287.475 364.5 288.495C362.441 290.554 358.283 289.909 355.438 290.057C354.3 290.122 354.3 290.122 353.139 290.188C351.259 290.295 349.38 290.395 347.5 290.495C347.5 289.835 347.5 289.175 347.5 288.495C348.981 288.296 348.981 288.296 350.492 288.092C351.774 287.916 353.055 287.739 354.375 287.557C356.289 287.296 356.289 287.296 358.242 287.03C361.376 286.68 361.376 286.68 363.5 285.495Z" fill="#E3E2E0"/>
<path d="M347.5 186.495C348.16 186.825 348.82 187.155 349.5 187.495C349.17 188.485 348.84 189.475 348.5 190.495C340.58 190.99 340.58 190.99 332.5 191.495C332.5 190.835 332.5 190.175 332.5 189.495C337.55 188.459 342.374 188.392 347.5 188.495C347.5 187.835 347.5 187.175 347.5 186.495Z" fill="#E2E2E1"/>
<path d="M326.5 225.495C326.5 226.155 326.5 226.815 326.5 227.495C324.626 227.834 322.751 228.166 320.875 228.495C319.831 228.68 318.787 228.866 317.711 229.057C314.594 229.482 311.641 229.57 308.5 229.495C308.5 228.835 308.5 228.175 308.5 227.495C310.562 227.157 312.624 226.825 314.688 226.495C315.836 226.309 316.985 226.124 318.168 225.932C321.004 225.56 323.647 225.409 326.5 225.495Z" fill="#E2E2E2"/>
<path d="M320.5 99.4948C320.5 100.155 320.5 100.815 320.5 101.495C317.876 101.883 315.252 102.256 312.625 102.62C311.879 102.732 311.132 102.844 310.363 102.96C308.418 103.222 306.458 103.366 304.5 103.495C303.84 102.835 303.18 102.175 302.5 101.495C305.946 98.0489 315.915 99.4114 320.5 99.4948Z" fill="#E3E3E3"/>
<path d="M353.5 62.4948C353.83 63.1548 354.16 63.8148 354.5 64.4948C352.438 64.8329 350.376 65.1651 348.313 65.4948C346.59 65.7732 346.59 65.7732 344.832 66.0573C341.996 66.4297 339.353 66.5808 336.5 66.4948C336.5 65.8348 336.5 65.1748 336.5 64.4948C338.395 64.1563 340.291 63.8242 342.188 63.4948C343.771 63.2164 343.771 63.2164 345.387 62.9323C348.149 62.5441 350.717 62.4122 353.5 62.4948Z" fill="#E1E2E2"/>
<path d="M362.5 272.495C362.17 273.815 361.84 275.135 361.5 276.495C361.5 275.835 361.5 275.175 361.5 274.495C360.675 274.66 359.85 274.825 359 274.995C355.087 275.554 351.448 275.563 347.5 275.495C347.17 274.835 346.84 274.175 346.5 273.495C351.885 272.578 357.042 272.383 362.5 272.495Z" fill="#E4E0DD"/>
<path d="M350.5 47.4948C350.83 48.1548 351.16 48.8148 351.5 49.4948C345.38 50.8993 339.783 51.7275 333.5 51.4948C333.5 50.8348 333.5 50.1748 333.5 49.4948C341.915 48.5048 341.915 48.5048 350.5 47.4948Z" fill="#E2E2E2"/>
<path d="M332.5 240.495C333.49 241.815 334.48 243.135 335.5 244.495C329.56 244.825 323.62 245.155 317.5 245.495C320.27 242.724 322.265 243.097 326.125 242.87C327.314 242.795 328.502 242.72 329.727 242.643C331.099 242.57 331.099 242.57 332.5 242.495C332.5 241.835 332.5 241.175 332.5 240.495Z" fill="#E3E1DE"/>
<path d="M234.5 101.495C233.51 102.98 233.51 102.98 232.5 104.495C228.21 103.835 223.92 103.175 219.5 102.495C219.5 102.165 219.5 101.835 219.5 101.495C224.735 100.739 229.273 100.288 234.5 101.495Z" fill="#E0EBEE"/>
<path d="M260.5 145.495C260.5 145.825 260.5 146.155 260.5 146.495C255.88 146.825 251.26 147.155 246.5 147.495C246.17 146.835 245.84 146.175 245.5 145.495C250.727 144.288 255.265 144.739 260.5 145.495Z" fill="#D7D9DA"/>
<path d="M247.5 264.495C244.338 266.603 242.993 266.833 239.313 267.12C237.961 267.232 237.961 267.232 236.582 267.346C235.551 267.42 235.551 267.42 234.5 267.495C234.17 266.835 233.84 266.175 233.5 265.495C238.263 264.542 242.667 264.411 247.5 264.495Z" fill="#EFEEE4"/>
<path d="M41.543 74.2721C42.2507 74.655 42.9584 75.0378 43.6875 75.4323C44.403 75.8126 45.1184 76.1928 45.8555 76.5846C46.3982 76.885 46.9409 77.1853 47.5 77.4948C44.0249 78.6532 42.3633 78.2675 38.8125 77.5573C37.8187 77.3626 36.8248 77.168 35.8008 76.9675C35.0416 76.8115 34.2823 76.6555 33.5 76.4948C38.5451 73.1314 38.5451 73.1314 41.543 74.2721Z" fill="#E53E40"/>
<path d="M218.5 149.495C218.5 150.155 218.5 150.815 218.5 151.495C213.845 152.333 210.129 152.511 205.5 151.495C205.5 151.165 205.5 150.835 205.5 150.495C206.916 150.325 208.333 150.159 209.75 149.995C210.933 149.856 210.933 149.856 212.141 149.714C214.5 149.495 214.5 149.495 218.5 149.495Z" fill="#D4CDCF"/>
<path d="M314.5 115.495C314.17 116.155 313.84 116.815 313.5 117.495C310.86 117.495 308.22 117.495 305.5 117.495C305.5 116.835 305.5 116.175 305.5 115.495C311.125 114.37 311.125 114.37 314.5 115.495Z" fill="#E4E4E4"/>
</svg>
