<svg width="31" height="31" viewBox="0 0 31 31" fill="none" xmlns="http://www.w3.org/2000/svg">
<path d="M6.88419 4.6155H29.4999L26.423 15.3847H8.54102M27.9615 21.5386H9.49993L6.423 1.53857H1.80762M11.0384 27.6924C11.0384 28.5421 10.3496 29.2309 9.49993 29.2309C8.65026 29.2309 7.96146 28.5421 7.96146 27.6924C7.96146 26.8427 8.65026 26.154 9.49993 26.154C10.3496 26.154 11.0384 26.8427 11.0384 27.6924ZM27.9615 27.6924C27.9615 28.5421 27.2727 29.2309 26.423 29.2309C25.5733 29.2309 24.8845 28.5421 24.8845 27.6924C24.8845 26.8427 25.5733 26.154 26.423 26.154C27.2727 26.154 27.9615 26.8427 27.9615 27.6924Z" stroke="#383838" stroke-width="3" stroke-linecap="round" stroke-linejoin="round"/>
</svg>
