<svg width="22" height="22" viewBox="0 0 22 22" fill="none" xmlns="http://www.w3.org/2000/svg">
<path d="M0.732244 4.26777C-0.244081 3.29147 -0.244081 1.70854 0.732244 0.732244C1.70854 -0.244081 3.29147 -0.244081 4.26777 0.732244L10.7417 7.20625L17.2015 0.74652C18.1777 -0.22978 19.7607 -0.22978 20.737 0.74652C21.7132 1.72285 21.7132 3.30574 20.737 4.28207L14.2772 10.7417L20.7372 17.2015C21.7135 18.178 21.7135 19.7607 20.7372 20.7372C19.7607 21.7135 18.178 21.7135 17.2015 20.7372L10.7417 14.2772L4.28227 20.7367C3.30594 21.713 1.72304 21.713 0.746744 20.7367C-0.229581 19.7605 -0.229581 18.1775 0.746744 17.2012L7.20622 10.7417L0.732244 4.26777Z" fill="#393A3B"/>
</svg>
