<svg width="8" height="8" viewBox="0 0 8 8" fill="none" xmlns="http://www.w3.org/2000/svg">
<path fill-rule="evenodd" clip-rule="evenodd" d="M4 8C6.2092 8 8 6.2092 8 4C8 1.7908 6.2092 0 4 0C1.7908 0 0 1.7908 0 4C0 6.2092 1.7908 8 4 8ZM3.4 5.9964C3.4 5.6496 3.6636 5.4 3.9964 5.4C4.3364 5.4 4.6 5.6496 4.6 5.9964C4.6 6.3432 4.3364 6.6 3.9964 6.6C3.6636 6.6 3.4 6.3432 3.4 5.9964ZM3.6688 1.6C3.64181 1.60003 3.61511 1.60552 3.5903 1.61614C3.56549 1.62676 3.54308 1.64229 3.52444 1.6618C3.50579 1.68131 3.49128 1.70439 3.48179 1.72965C3.47229 1.75491 3.46801 1.78184 3.4692 1.8088L3.5916 4.6088C3.59387 4.6603 3.61594 4.70894 3.6532 4.74457C3.69047 4.78019 3.74005 4.80005 3.7916 4.8H4.2088C4.26035 4.80005 4.30993 4.78019 4.3472 4.74457C4.38446 4.70894 4.40653 4.6603 4.4088 4.6088L4.5308 1.8088C4.53199 1.7818 4.5277 1.75485 4.51818 1.72956C4.50866 1.70427 4.49412 1.68117 4.47543 1.66165C4.45673 1.64214 4.43428 1.62662 4.40943 1.61602C4.38457 1.60542 4.35782 1.59997 4.3308 1.6H3.6688Z" fill="#FF6464"/>
</svg>
