<svg width="32" height="31" viewBox="0 0 32 31" fill="none" xmlns="http://www.w3.org/2000/svg">
<path d="M2.96416 25.0564L2.96346 25.0581C2.08654 27.1679 3.82253 29.1923 5.82795 29.1923H26.0193C28.0247 29.1923 29.7607 27.1679 28.8838 25.0581L28.8831 25.0564C26.7122 19.8513 21.6348 16.9615 15.9228 16.9615C10.2123 16.9615 5.13501 19.8513 2.96416 25.0564ZM29.7748 27.4559L29.775 27.4567C29.9608 28.2952 29.26 29.2692 28.1473 29.2692H3.69841C2.58816 29.2692 1.88552 28.2956 2.07093 27.4556C3.09843 22.8124 6.29206 19.391 10.5392 17.8276L13.0553 16.9015L10.9496 15.2419C9.14305 13.818 8.0001 11.6514 8.0001 9.23075C8.0001 4.68754 12.0393 1.00283 16.8837 1.55493L16.884 1.55496C20.371 1.9518 23.2403 4.68346 23.753 8.02724L23.753 8.02748C24.1996 10.9367 22.9926 13.5895 20.8972 15.2422L18.7934 16.9017L21.3079 17.8275C25.5541 19.3911 28.749 22.8129 29.7748 27.4559ZM15.9228 1.5769C11.6611 1.5769 8.14102 4.97928 8.14102 9.23075C8.14102 13.4822 11.6611 16.8846 15.9228 16.8846C20.1864 16.8846 23.7047 13.482 23.7047 9.23075C23.7047 4.97952 20.1864 1.5769 15.9228 1.5769Z" fill="#383838" stroke="#383838" stroke-width="3"/>
</svg>
